<svg xmlns="http://www.w3.org/2000/svg" width="250" height="250" viewBox="0 0 250 250" fill="none">
        <path
                d="M172.29 176.27C175.581 176.373 178.778 175.168 181.182 172.919C183.587 170.67 185.003 167.56 185.12 164.27C186.06 134.19 183.46 99.52 183.85 88.98C184.3 76.98 167.4 73.65 158.32 73.75C132.56 74.0166 106.85 75.4766 81.1901 78.13C76.2701 78.64 70.6101 79.68 68.2601 84.02C67.0801 86.18 67.0001 88.76 67.0001 91.23C66.8101 104.8 65.5601 135.47 64.7001 155.32C64.6093 157.7 64.9919 160.075 65.8258 162.307C66.6597 164.538 67.9283 166.582 69.558 168.32C71.1877 170.057 73.146 171.454 75.3196 172.429C77.4932 173.404 79.8387 173.938 82.2201 174C107.14 174.61 151.05 175.63 172.29 176.27Z"
                stroke="#1B2D38" stroke-width="2" stroke-linecap="round" stroke-linejoin="round" />
        <path
                d="M65.1501 141.77C74.6701 133.65 83.7001 125.53 93.2201 117.4C95.3501 115.58 97.5901 113.7 100.32 113.04C106.65 111.51 112.32 116.88 116.65 121.77C132.437 139.77 148.083 157.9 163.59 176.16"
                stroke="#1B2D38" stroke-width="2" stroke-linecap="round" stroke-linejoin="round" />
        <path
                d="M149 98.8199C140.93 96.4199 137 105.33 139 111.36C141 117.39 149.59 119.91 154.43 115.83C159.27 111.75 157 101.22 149 98.8199Z"
                stroke="#1B2D38" stroke-width="2" stroke-linecap="round" stroke-linejoin="round" />
        <script xmlns="" />
</svg>